<svg width="200" height="140" viewBox="0 0 200 140" fill="none" xmlns="http://www.w3.org/2000/svg">
  <rect width="200" height="140" fill="none"/>
  <g transform="translate(0 5)">
    <path d="M50 15L100 44V102L50 131L0 102V44L50 15Z" fill="#C9D8E6"/>
    <path d="M50 15L100 44V102L50 131V15Z" fill="#7BAFD4"/>
    <path d="M50 15L0 44V102L50 131V15Z" fill="#A0C5DF"/>
    <path d="M34 45L46 38V74L34 81V45Z" fill="#F5FAFD"/>
    <path d="M54 38L66 45V68L54 75V38Z" fill="#F5FAFD"/>
    <path d="M78 52L90 59V82L78 89V52Z" fill="#F5FAFD"/>
  </g>
  <text x="100" y="112" text-anchor="middle" font-family="Inter, 'Segoe UI', sans-serif" font-size="24" letter-spacing="0.6em" fill="#1F2024">INDUSTRA</text>
  <text x="100" y="134" text-anchor="middle" font-family="Inter, 'Segoe UI', sans-serif" font-size="14" letter-spacing="0.8em" fill="#5B5F66">BANK</text>
</svg>
